<?xml version="1.0" standalone="no"?>
<!DOCTYPE svg PUBLIC "-//W3C//DTD SVG 20010904//EN"
 "http://www.w3.org/TR/2001/REC-SVG-20010904/DTD/svg10.dtd">
<svg version="1.0" xmlns="http://www.w3.org/2000/svg"
 width="1280.000000pt" height="1280.000000pt" viewBox="0 0 1280.000000 1280.000000"
 preserveAspectRatio="xMidYMid meet">
<metadata>
Created by potrace 1.15, written by Peter Selinger 2001-2017
</metadata>
<g transform="translate(0.000000,1280.000000) scale(0.100000,-0.100000)"
fill="#000000" stroke="none">
<path d="M1540 12210 c0 -380 3 -580 10 -580 7 0 10 200 10 580 0 380 -3 580
-10 580 -7 0 -10 -200 -10 -580z"/>
<path d="M11240 12210 c0 -380 3 -580 10 -580 7 0 10 200 10 580 0 380 -3 580
-10 580 -7 0 -10 -200 -10 -580z"/>
<path d="M10 11250 c0 -7 200 -10 580 -10 380 0 580 3 580 10 0 7 -200 10
-580 10 -380 0 -580 -3 -580 -10z"/>
<path d="M11630 11250 c0 -7 200 -10 580 -10 380 0 580 3 580 10 0 7 -200 10
-580 10 -380 0 -580 -3 -580 -10z"/>
<path d="M4850 8560 c0 -568 -3 -722 -12 -725 -7 -2 -42 -6 -77 -7 l-63 -3
-95 355 c-52 195 -96 356 -97 357 -2 2 -159 -38 -207 -52 -13 -5 -1 -60 81
-366 l97 -361 -46 -20 c-25 -11 -56 -24 -68 -28 -20 -8 -46 34 -374 603 -193
337 -357 617 -363 624 -8 9 -34 -1 -108 -44 -53 -32 -95 -59 -94 -62 2 -4 164
-284 360 -623 196 -340 356 -619 356 -621 0 -2 -25 -23 -57 -46 l-56 -43 -261
261 c-144 144 -266 261 -271 261 -13 0 -155 -142 -155 -155 0 -5 117 -127 261
-271 l261 -261 -43 -56 c-23 -32 -43 -57 -45 -57 -3 0 -819 470 -1209 696
l-41 23 -56 -97 c-44 -74 -54 -100 -45 -108 7 -6 287 -169 624 -363 572 -330
611 -354 603 -374 -4 -12 -17 -43 -28 -68 l-20 -46 -361 97 c-306 82 -361 94
-366 81 -14 -47 -54 -205 -52 -207 1 -1 157 -43 347 -93 190 -51 351 -94 358
-97 11 -3 12 -19 7 -71 -4 -38 -8 -69 -10 -71 -1 -1 -326 -3 -721 -5 l-719 -2
0 -115 0 -115 719 -2 c395 -2 720 -4 721 -5 2 -2 6 -33 10 -71 5 -52 4 -68 -7
-71 -7 -3 -168 -46 -358 -97 -190 -50 -346 -92 -347 -93 -2 -2 38 -160 52
-207 5 -13 60 -1 366 81 l361 97 20 -46 c11 -25 24 -56 28 -68 8 -20 -31 -44
-603 -374 -337 -194 -617 -357 -624 -363 -9 -8 1 -34 44 -108 32 -53 59 -95
62 -94 4 2 284 164 624 360 339 196 619 356 621 356 2 0 22 -25 45 -57 l43
-56 -261 -261 c-144 -144 -261 -266 -261 -271 0 -13 142 -155 155 -155 5 0
127 117 271 261 l261 261 56 -43 c32 -23 57 -44 57 -46 0 -2 -160 -281 -356
-621 -196 -339 -358 -619 -360 -623 -1 -3 41 -30 94 -62 74 -43 100 -53 108
-44 6 7 170 287 363 624 328 569 354 611 374 603 12 -4 43 -17 68 -28 l46 -20
-97 -361 c-82 -306 -94 -361 -81 -366 48 -14 205 -54 207 -52 1 1 45 162 97
357 l95 355 63 -3 c35 -1 70 -5 77 -7 9 -3 12 -157 12 -725 l0 -720 115 0 115
0 0 722 -1 723 68 8 c36 4 70 4 73 0 4 -5 48 -165 100 -358 51 -192 94 -351
95 -352 2 -3 216 54 219 59 1 1 -41 164 -94 361 l-97 359 46 20 c25 11 56 24
68 28 20 8 45 -32 372 -598 192 -334 356 -615 363 -624 12 -16 21 -13 110 39
l97 57 -23 41 c-456 786 -696 1209 -689 1214 4 4 30 24 56 45 l49 39 262 -262
c143 -143 266 -261 271 -261 13 0 155 142 155 155 0 5 -118 128 -261 271
l-262 262 39 49 c21 26 41 52 45 56 4 5 285 -152 625 -348 341 -197 622 -359
625 -361 3 -2 31 41 62 94 43 74 53 100 44 108 -7 6 -287 169 -624 363 l-611
352 28 67 c15 37 31 66 36 65 5 0 164 -42 354 -93 190 -51 349 -93 354 -93 7
-2 71 212 64 218 -4 3 -276 76 -523 141 -99 26 -183 50 -188 54 -4 3 -4 36 0
73 l8 67 2160 3 2160 2 0 115 0 115 -2160 2 -2160 3 -8 67 c-4 37 -4 70 0 73
5 4 89 28 188 54 247 65 519 138 523 141 7 6 -57 220 -64 218 -5 0 -164 -42
-354 -93 -190 -51 -349 -93 -354 -93 -5 -1 -21 28 -36 65 l-28 67 611 352
c337 194 617 357 624 363 9 8 -1 34 -44 108 -31 53 -59 96 -62 94 -3 -2 -284
-164 -625 -361 -340 -196 -621 -353 -625 -348 -4 4 -24 30 -45 56 l-39 49 262
262 c143 143 261 266 261 271 0 13 -142 155 -155 155 -5 0 -128 -118 -271
-261 l-262 -262 -49 39 c-26 21 -52 41 -56 45 -7 5 233 428 689 1214 l23 41
-97 57 c-89 52 -98 55 -110 39 -7 -9 -171 -290 -363 -624 -327 -566 -352 -606
-372 -598 -12 4 -43 17 -68 28 l-46 20 97 359 c53 197 95 360 94 361 -3 5
-217 62 -219 59 -1 -1 -44 -159 -95 -352 -52 -192 -97 -354 -101 -358 -3 -5
-36 -5 -73 0 l-67 8 1 723 0 722 -115 0 -115 0 0 -720z"/>
<path d="M10 1550 c0 -7 200 -10 580 -10 380 0 580 3 580 10 0 7 -200 10 -580
10 -380 0 -580 -3 -580 -10z"/>
<path d="M11630 1550 c0 -7 200 -10 580 -10 380 0 580 3 580 10 0 7 -200 10
-580 10 -380 0 -580 -3 -580 -10z"/>
<path d="M1540 590 c0 -380 3 -580 10 -580 7 0 10 200 10 580 0 380 -3 580
-10 580 -7 0 -10 -200 -10 -580z"/>
<path d="M11240 590 c0 -380 3 -580 10 -580 7 0 10 200 10 580 0 380 -3 580
-10 580 -7 0 -10 -200 -10 -580z"/>
</g>
</svg>
